<svg xmlns="http://www.w3.org/2000/svg" viewBox="0 0 512 512" width="512" height="512">
  <defs>
    <clipPath id="icon-shape">
      <rect width="512" height="512" rx="118"/>
    </clipPath>
    <linearGradient id="surface" x1="11%" y1="7%" x2="92%" y2="94%">
      <stop offset="0%" stop-color="#34382F"/>
      <stop offset="46%" stop-color="#20231F"/>
      <stop offset="100%" stop-color="#111312"/>
    </linearGradient>
    <radialGradient id="warm-light" cx="19%" cy="16%" r="74%">
      <stop offset="0%" stop-color="#D4A574" stop-opacity="0.46"/>
      <stop offset="54%" stop-color="#D4A574" stop-opacity="0.12"/>
      <stop offset="100%" stop-color="#D4A574" stop-opacity="0"/>
    </radialGradient>
    <radialGradient id="cool-light" cx="84%" cy="78%" r="62%">
      <stop offset="0%" stop-color="#00D4AA" stop-opacity="0.27"/>
      <stop offset="100%" stop-color="#00D4AA" stop-opacity="0"/>
    </radialGradient>
    <linearGradient id="prompt" x1="17%" y1="21%" x2="82%" y2="87%">
      <stop offset="0%" stop-color="#F2C68F"/>
      <stop offset="100%" stop-color="#B9864F"/>
    </linearGradient>
    <linearGradient id="cursor" x1="0%" y1="0%" x2="100%" y2="0%">
      <stop offset="0%" stop-color="#00D4AA"/>
      <stop offset="100%" stop-color="#8BEED9"/>
    </linearGradient>
    <filter id="glyph-shadow" x="-24%" y="-24%" width="148%" height="148%">
      <feDropShadow dx="0" dy="16" stdDeviation="18" flood-color="#000000" flood-opacity="0.4"/>
    </filter>
  </defs>

  <g clip-path="url(#icon-shape)">
    <rect width="512" height="512" fill="url(#surface)"/>
    <rect width="512" height="512" fill="url(#warm-light)"/>
    <rect width="512" height="512" fill="url(#cool-light)"/>
    <path d="M-24 377 C94 325 171 352 265 392 C354 430 435 422 536 356 V536 H-24Z" fill="#00D4AA" opacity="0.08"/>
    <path d="M78 72 H434 C448.4 72 460 83.6 460 98 V414 C460 428.4 448.4 440 434 440 H78 C63.6 440 52 428.4 52 414 V98 C52 83.6 63.6 72 78 72Z" fill="#000000" opacity="0.1"/>
    <path d="M78 72 H434 C448.4 72 460 83.6 460 98 V414 C460 428.4 448.4 440 434 440 H78 C63.6 440 52 428.4 52 414 V98 C52 83.6 63.6 72 78 72Z" fill="none" stroke="#D4A574" stroke-opacity="0.16" stroke-width="3"/>

    <g filter="url(#glyph-shadow)">
      <path
        d="M147 174 L270 256 L147 338"
        fill="none"
        stroke="url(#prompt)"
        stroke-width="58"
        stroke-linecap="round"
        stroke-linejoin="round"
      />
      <rect x="302" y="317" width="110" height="39" rx="13" fill="url(#cursor)"/>
    </g>

    <rect x="118" y="116" width="46" height="5" rx="2.5" fill="#F2C68F" opacity="0.22"/>
    <rect x="181" y="116" width="74" height="5" rx="2.5" fill="#F2C68F" opacity="0.12"/>
    <rect x="118" y="390" width="132" height="5" rx="2.5" fill="#00D4AA" opacity="0.16"/>
    <rect x="52" y="72" width="408" height="368" rx="26" fill="none" stroke="#FFFFFF" stroke-opacity="0.07" stroke-width="2"/>
  </g>
  <rect x="1.5" y="1.5" width="509" height="509" rx="116.5" fill="none" stroke="#D4A574" stroke-opacity="0.22" stroke-width="3"/>
</svg>
