<svg xmlns="http://www.w3.org/2000/svg" viewBox="0 0 512 512" width="512" height="512">
  <defs>
    <clipPath id="icon-shape">
      <rect width="512" height="512" rx="118"/>
    </clipPath>
    <linearGradient id="surface" x1="11%" y1="7%" x2="92%" y2="94%">
      <stop offset="0%" stop-color="#34382F"/>
      <stop offset="46%" stop-color="#20231F"/>
      <stop offset="100%" stop-color="#111312"/>
    </linearGradient>
    <radialGradient id="warm-light" cx="19%" cy="16%" r="74%">
      <stop offset="0%" stop-color="#D4A574" stop-opacity="0.46"/>
      <stop offset="54%" stop-color="#D4A574" stop-opacity="0.12"/>
      <stop offset="100%" stop-color="#D4A574" stop-opacity="0"/>
    </radialGradient>
    <radialGradient id="cool-light" cx="84%" cy="78%" r="62%">
      <stop offset="0%" stop-color="#00D4AA" stop-opacity="0.27"/>
      <stop offset="100%" stop-color="#00D4AA" stop-opacity="0"/>
    </radialGradient>
    <linearGradient id="agent-glyph" x1="20%" y1="10%" x2="80%" y2="95%">
      <stop offset="0%" stop-color="#F2C68F"/>
      <stop offset="55%" stop-color="#B9864F"/>
      <stop offset="100%" stop-color="#00D4AA"/>
    </linearGradient>
    <linearGradient id="cursor" x1="0%" y1="0%" x2="100%" y2="0%">
      <stop offset="0%" stop-color="#00D4AA"/>
      <stop offset="100%" stop-color="#8BEED9"/>
    </linearGradient>
    <filter id="glyph-shadow" x="-24%" y="-24%" width="148%" height="148%">
      <feDropShadow dx="0" dy="16" stdDeviation="18" flood-color="#000000" flood-opacity="0.4"/>
    </filter>
  </defs>

  <g clip-path="url(#icon-shape)">
    <rect width="512" height="512" fill="url(#surface)"/>
    <rect width="512" height="512" fill="url(#warm-light)"/>
    <rect width="512" height="512" fill="url(#cool-light)"/>
    <path d="M-24 377 C94 325 171 352 265 392 C354 430 435 422 536 356 V536 H-24Z" fill="#00D4AA" opacity="0.08"/>

    <g filter="url(#glyph-shadow)" transform="translate(64 77) scale(24)">
      <path
        d="M14.5 8.9v-.052A2.956 2.956 0 0 0 11.542 5.9a.815.815 0 0 1-.751-.501l-.145-.348A3.496 3.496 0 0 0 7.421 2.9h-.206a3.754 3.754 0 0 0-3.736 4.118l.011.121a.822.822 0 0 1-.619.879A1.81 1.81 0 0 0 1.5 9.773v.14c0 1.097.89 1.987 1.987 1.987H4.5a.75.75 0 0 1 0 1.5H3.487A3.487 3.487 0 0 1 0 9.913v-.14C0 8.449.785 7.274 1.963 6.75A5.253 5.253 0 0 1 7.215 1.4h.206a4.992 4.992 0 0 1 4.586 3.024A4.455 4.455 0 0 1 16 8.848V8.9a.75.75 0 0 1-1.5 0Z"
        fill="url(#agent-glyph)"
      />
      <path
        d="m8.38 7.67 2.25 2.25a.749.749 0 0 1 0 1.061L8.38 13.23a.749.749 0 1 1-1.06-1.06l1.719-1.72L7.32 8.731A.75.75 0 0 1 8.38 7.67Z"
        fill="url(#agent-glyph)"
      />
      <path
        d="M15 13.45h-3a.75.75 0 0 1 0-1.5h3a.75.75 0 0 1 0 1.5Z"
        fill="url(#cursor)"
      />
    </g>
  </g>
  <rect x="1.5" y="1.5" width="509" height="509" rx="116.5" fill="none" stroke="#D4A574" stroke-opacity="0.22" stroke-width="3"/>
</svg>
